<?xml version="1.0" encoding="UTF-8" standalone="no"?>
<svg
   width="100px"
   height="100px"
   viewBox="0 0 100 100"
   enable-background="new 0 0 100 100"
   id="Layer_1"
   version="1.1"
   xml:space="preserve"
   sodipodi:docname="ais-vd_ny.svg"
   inkscape:version="1.1.1 (3bf5ae0d25, 2021-09-20)"
   xmlns:inkscape="http://www.inkscape.org/namespaces/inkscape"
   xmlns:sodipodi="http://sodipodi.sourceforge.net/DTD/sodipodi-0.dtd"
   xmlns="http://www.w3.org/2000/svg"
   xmlns:svg="http://www.w3.org/2000/svg"><defs
     id="defs25" /><sodipodi:namedview
     id="namedview23"
     pagecolor="#ffffff"
     bordercolor="#666666"
     borderopacity="1.0"
     inkscape:pageshadow="2"
     inkscape:pageopacity="0.0"
     inkscape:pagecheckerboard="0"
     showgrid="false"
     inkscape:zoom="10.459149"
     inkscape:cx="36.188413"
     inkscape:cy="37.383539"
     inkscape:window-width="2560"
     inkscape:window-height="1400"
     inkscape:window-x="-12"
     inkscape:window-y="-12"
     inkscape:window-maximized="1"
     inkscape:current-layer="g20" /><g
     id="g20"
     transform="translate(-1.2600229,12.256587)"><path
       d="m 17.03587,43.311014 h -0.239 c -1.477,0 -2.678,1.201 -2.678,2.677 v 23.167 c 0,1.476 1.201,2.677 2.678,2.677 h 0.239 c 1.477,0 2.678,-1.201 2.678,-2.677 v -23.167 c 0,-1.476 -1.201,-2.677 -2.678,-2.677 z m 0.678,25.844 c 0,0.373 -0.304,0.677 -0.678,0.677 h -0.239 c -0.374,0 -0.678,-0.304 -0.678,-0.677 v -23.167 c 0,-0.373 0.304,-0.677 0.678,-0.677 h 0.239 c 0.374,0 0.678,0.304 0.678,0.677 z"
       id="path2" /><path
       id="path4"
       d="m 9.4915589,25.358647 -0.7048175,0.285727 c 0.1677685,-0.02709 0.3437239,-0.07731 0.5311675,-0.155179 0.028618,-0.06928 0.1174615,-0.08614 0.17365,-0.130548 z m -0.010251,0.02956 c -0.00262,-0.0094 -0.049057,0.03476 -0.1348354,0.08867 0.043105,-0.01845 0.084087,-0.03266 0.1287059,-0.0542 0.00554,-0.02052 0.00722,-0.03082 0.00617,-0.03448 z m 14.5989181,2.945936 c -0.01036,-4.72e-4 -0.03702,0.0072 -0.07967,0.02709 -0.184087,0.08578 -0.356431,0.205278 -0.527081,0.3276 -0.0099,0.03563 -0.01633,0.07287 -0.02656,0.10838 0.376664,-0.247447 0.681437,-0.460882 0.633315,-0.463074 z m 0.210424,3.310482 c -0.08749,-9.7e-5 -0.169283,0.01429 -0.267627,0.01238 -0.05449,-1.92e-4 -0.108965,-5.06e-4 -0.163436,0 0.120285,0.0027 0.241233,0.0063 0.361603,0.0049 0.130844,-0.003 0.261385,-0.0027 0.392246,-0.0025 0.02793,8e-6 0.05585,0 0.08376,0 0.0014,-0.0033 0.0026,-0.0067 0.0041,-0.0099 -0.06121,-6.59e-4 -0.122438,-1.17e-4 -0.183865,0 -0.07684,0.003 -0.151574,-0.0019 -0.226768,-0.0049 z m -0.723204,0.01478 c 0.0024,0.0037 0.0037,0.0059 0.0062,0.0099 0.01818,-0.0029 0.04322,-0.0063 0.06741,-0.0099 -0.01498,4.1e-5 -0.02996,2.5e-5 -0.04495,0 -0.0095,-6e-5 -0.01907,4.5e-5 -0.0286,0 z m 0.03882,0.05911 c 0.06229,0.100091 0.161158,0.257062 0.320744,0.485243 -0.01705,-0.109746 -0.04483,-0.225167 -0.09397,-0.330064 -0.0419,-0.08945 -0.14421,-0.132276 -0.226767,-0.155179 z m -0.751805,0.354694 c -0.01169,-0.0035 -0.0132,0.139127 -0.02043,0.192127 0.02816,0.03183 0.04929,0.05461 0.07559,0.08375 -0.01091,-0.09071 -0.02555,-0.179834 -0.05108,-0.263558 -0.0022,-0.0072 -0.0024,-0.01188 -0.0041,-0.01238 z m -0.655787,0.741412 c -0.197955,-2.28e-4 -0.396515,0.0018 -0.594499,0.0025 -0.19046,0.284478 -0.38709,0.56523 -0.598583,0.832547 -0.912104,1.1552 -1.985012,2.100442 -3.193131,2.810461 -0.358775,0.211871 -0.586327,0.652559 -0.586326,1.133052 v 37.681373 c 0,0.481757 0.227551,0.921182 0.586326,1.133053 0.645714,0.379819 1.251055,0.831844 1.816182,1.34242 0.384104,-0.09721 0.617882,-0.141087 1.03169,-0.219221 0.182512,-0.01956 0.384048,-0.01817 0.565897,0.0468 0.15053,-0.07467 0.291769,-0.106194 0.394289,0.01724 0.301558,0.363085 0.462846,0.625014 0.539339,0.825157 0.188098,0.07688 0.150381,0.284169 0.05108,0.738949 0.02372,0.06448 0.03824,0.112398 0.05925,0.172419 0.162777,0 0.325587,-3e-6 0.488265,0 0.144539,10e-7 0.288567,1.3e-5 0.433105,0 0.179992,4e-6 0.361391,1.6e-4 0.541383,0 0.21467,-6.28e-4 0.428859,-6.91e-4 0.643528,0 0.160965,0.0033 0.32318,-0.01644 0.48418,0.0025 0.0728,0.0029 0.145857,0.0052 0.218595,0.0099 0.102884,-0.02915 0.189692,-0.08177 0.29827,-0.07882 0.04406,0.0012 0.09103,0.01112 0.14505,0.03695 0.05828,0.103705 0.118361,0.207448 0.177737,0.310358 h 0.171607 c 0.0056,-0.004 0.01618,-0.0035 0.0286,0 h 0.09397 c 0.01253,-0.111059 0.01566,-0.116113 0.0041,0 h 58.383414 v 4.22924 c 0,1.614254 1.089203,2.928694 2.427024,2.928694 h 4.175789 c 1.338868,0 2.427024,-1.31444 2.427024,-2.928694 v -4.623344 c 1.518778,-0.766772 2.588417,-2.5727 2.588417,-4.677536 V 38.329734 c 0,-2.7972 -1.887473,-5.07164 -4.206433,-5.07164 H 25.606345 c -0.124365,0.02082 -0.219517,0.02334 -0.320742,0 h -1.358561 c 0.02678,-0.04817 0.0453,-0.101696 0.0715,-0.150253 -0.08395,-2.29e-4 -0.163431,-0.0029 -0.216552,-0.01478 -0.214064,0.04175 -0.573853,0.142034 -0.735462,-0.130547 l -0.0021,-0.0025 c -0.02801,-0.0018 -0.04848,-0.0033 -0.07967,-0.0049 -0.01107,-9.17e-4 -0.02169,0.0013 -0.03269,-0.0025 -0.138118,0.04891 -0.280616,0.05423 -0.426977,0.01724 -0.07693,-0.03217 -0.15526,-0.05954 -0.230854,-0.09606 -0.02859,-0.01381 -0.101503,-0.028 -0.07967,-0.0542 0.0014,-0.0016 0.0026,-0.0035 0.0041,-0.0049 z m 0.0021,2.96564 h 69.591035 c 1.166279,0 2.114453,1.144462 2.114453,2.549368 v 36.210867 h 0.0021 c 0,1.392294 -0.934216,2.524263 -2.085851,2.544442 h -7.43838 v 0.0049 H 22.200749 c -0.03452,-0.04036 -0.0758,-0.07295 -0.11032,-0.113296 -0.378648,-0.437613 -0.775683,-0.851976 -1.195125,-1.231578 -0.06171,-0.05549 -0.125192,-0.105879 -0.187952,-0.160106 -0.444546,-0.388429 -0.903867,-0.753548 -1.389205,-1.076398 v -8.872292 c 2.486318,4.463161 6.704453,7.34267 11.389443,7.34267 7.565647,0 13.72045,-7.423226 13.72045,-16.545024 0,-9.121799 -6.154803,-16.54256 -13.72045,-16.54256 -4.68499,0 -8.903125,2.877044 -11.389443,7.340206 v -8.87229 c 0.485339,-0.322852 0.945657,-0.685506 1.391249,-1.073936 0.06171,-0.05424 0.124194,-0.104615 0.185908,-0.160107 0.419442,-0.379602 0.816477,-0.793963 1.195125,-1.231578 0.03452,-0.04036 0.0758,-0.07295 0.11032,-0.113296 z m 8.506842,6.633282 c 6.412966,0 11.628469,6.288261 11.628469,14.020288 0,7.732026 -5.215503,14.022752 -11.628469,14.022752 -5.528058,0 -10.301648,-4.713478 -11.389443,-11.219679 V 53.633221 C 20.404945,47.125758 25.179546,42.413543 30.707604,42.413543 Z M 6.6191715,54.091372 c -0.00575,0.0047 -0.010575,0.0076 -0.016349,0.01238 v 0.07882 c 0.00565,-0.03034 0.010742,-0.06078 0.016349,-0.09115 z m -0.00617,12.769005 c -0.00335,0.02219 -0.0068,0.04433 -0.010251,0.0665 v 0.285727 c 0.0068,-0.0049 0.013577,-0.01011 0.020428,-0.01478 -0.00397,-0.112512 -0.00711,-0.224945 -0.010251,-0.337452 z M 21.461158,77.60713 c -0.0061,5.71e-4 -0.0029,0.0037 -0.0062,0.0049 0.03442,-8.29e-4 0.06349,8.66e-4 0.112362,-0.0025 -0.05362,-0.002 -0.08716,-0.0043 -0.106233,-0.0025 z m 65.014828,2.00501 h 4.845918 v 4.22924 c -0.001,0.221959 -0.15194,0.406421 -0.337087,0.406421 h -4.175789 c -0.18514,0 -0.333,-0.184462 -0.333,-0.406421 z M 1.2176132,85.65426 c -0.00462,0.01162 -0.01494,0.05298 -0.022472,0.07882 0.00865,0.02492 0.00605,0.01295 0.010219,0.02463 0.004,-0.02865 0.00856,-0.05751 0.012258,-0.08622 -2.417e-4,-0.0066 2.189e-4,-0.01011 0,-0.01723 z"
       style="stroke-width:1.14853" /><path
       d="m 33.574,65.408095 c 4.858,0 8.812,-3.952 8.812,-8.811 0,-4.859 -3.953,-8.811 -8.812,-8.811 -4.859,0 -8.81,3.953 -8.81,8.811 0,4.858 3.952,8.811 8.81,8.811 z m 0,-15.622 c 3.756,0 6.812,3.056 6.812,6.811 0,3.755 -3.056,6.811 -6.812,6.811 -3.755,0 -6.811,-3.056 -6.811,-6.811 0,-3.755 3.056,-6.811 6.811,-6.811 z"
       id="path6" /><path
       d="m 32.045467,7.5645633 c 4.858,0 8.812,-1.2965533 8.812,-2.8906716 0,-1.594118 -3.953,-2.8906717 -8.812,-2.8906717 -4.859,0 -8.81,1.2968821 -8.81,2.8906717 0,1.5937899 3.952,2.8906716 8.81,2.8906716 z m 0,-5.1251926 c 3.756,0 6.812,1.0025981 6.812,2.234521 0,1.2319232 -3.056,2.2345209 -6.812,2.2345209 -3.755,0 -6.811,-1.0025977 -6.811,-2.2345209 0,-1.2319229 3.056,-2.234521 6.811,-2.234521 z"
       id="path6-0"
       style="stroke-width:0.572778" /><path
       d="m 65.21,36.882 h -6.287 c -0.553,0 -1,0.447 -1,1 v 3.351 c 0,0.553 0.447,1 1,1 h 6.287 c 0.553,0 1,-0.447 1,-1 v -3.351 c 0,-0.553 -0.447,-1 -1,-1 z m -1,3.35 h -4.287 v -1.351 h 4.287 z"
       id="path8" /><path
       d="m 70.879,42.232 h 6.287 c 0.553,0 1,-0.447 1,-1 v -3.351 c 0,-0.553 -0.447,-1 -1,-1 h -6.287 c -0.553,0 -1,0.447 -1,1 v 3.351 c 0,0.553 0.447,1 1,1 z m 1,-3.35 h 4.287 v 1.351 h -4.287 z"
       id="path10" /><path
       d="m 89.121,36.882 h -6.287 c -0.553,0 -1,0.447 -1,1 v 3.351 c 0,0.553 0.447,1 1,1 h 6.287 c 0.553,0 1,-0.447 1,-1 v -3.351 c 0,-0.553 -0.447,-1 -1,-1 z m -1,3.35 h -4.287 v -1.351 h 4.287 z"
       id="path12" /><path
       d="M 89.121,51.245 H 70.879 c -0.553,0 -1,0.447 -1,1 0,0.553 0.447,1 1,1 h 18.242 c 0.553,0 1,-0.447 1,-1 0,-0.553 -0.447,-1 -1,-1 z"
       id="path14" /><path
       d="M 89.121,56.121 H 70.879 c -0.553,0 -1,0.447 -1,1 0,0.553 0.447,1 1,1 h 18.242 c 0.553,0 1,-0.447 1,-1 0,-0.553 -0.447,-1 -1,-1 z"
       id="path16" /><path
       d="M 89.121,60.998 H 70.879 c -0.553,0 -1,0.447 -1,1 0,0.553 0.447,1 1,1 h 18.242 c 0.553,0 1,-0.447 1,-1 0,-0.553 -0.447,-1 -1,-1 z"
       id="path18" /><path
       id="path2883"
       style="fill:none;stroke:#000000;stroke-width:1px;stroke-linecap:butt;stroke-linejoin:miter;stroke-opacity:1"
       d="m 23.760998,79.52 c -0.0652,0.103992 -0.170808,0.192231 -0.195313,0.3125 -0.04849,0.23798 -0.0035,1.001748 0.02539,1.693359 z m -0.169922,2.005859 -0.115235,1.347657 c 0.03581,-0.04194 0.06923,-0.08377 0.08984,-0.125 0.06244,-0.124886 0.04933,-0.64962 0.02539,-1.222657 z m -0.115235,1.347657 c -0.05687,0.0666 -0.121565,0.133755 -0.154296,0.199218 -0.107761,0.215522 0,1.316835 0,1.619141 z" /><path
       style="fill:none;stroke:#000000;stroke-width:1px;stroke-linecap:butt;stroke-linejoin:miter;stroke-opacity:1"
       d="m 23.475841,82.873516 c 0.480609,0 0.409017,-0.03929 0.809973,0.081 0.163556,0.04907 0.329944,0.09264 0.485984,0.161994 0.08896,0.03954 0.149391,0.135252 0.242992,0.161995 0.103842,0.02967 0.221535,-0.03415 0.32399,0 0.07245,0.02415 0.09369,0.127843 0.161994,0.161995 0.249498,0.124749 2.824549,0 3.320891,0 m 2.348923,-4.778845 c -0.669892,1.116487 -0.106095,0.0194 -0.242992,0.566981 -0.03064,0.122563 -0.131354,0.282424 -0.161995,0.404987 -0.02619,0.104772 0.02619,0.219217 0,0.323989 -0.0093,0.03704 -0.07174,0.04395 -0.081,0.081 -0.13976,0.559041 0.13976,1.222901 0,1.781942 -0.12862,0.514482 -0.081,1.076293 -0.081,1.619947 -0.161993,0.107995 -0.316939,0.227392 -0.485978,0.323986 -0.02278,0.01302 -1.603702,0.0081 -1.619947,0 -0.471251,-0.235626 -0.260493,-0.242992 -0.890971,-0.242992 m -3.256507,-6.403372 c -0.210469,2.662756 0.06543,0.0035 -0.145381,1.057548 -0.08406,0.420311 0.157118,1.953689 0,2.267925 -0.09689,0.193776 0.0114,0.463176 -0.081,0.647979 -0.293337,0.586674 -0.161995,2.07807 -0.161995,2.834907 0.210375,0.376857 0.633647,-0.04767 0.890974,0.081 0.143831,0.07192 0.256958,0.03166 0.404986,0.081 0.222227,0.07408 0.421601,0.167533 0.647979,0.242992 0.384696,0.128232 1.048337,0 1.457952,0 1.025967,0 2.051933,0 3.077899,0"
       id="path2887" /><text
       xml:space="preserve"
       style="font-style:normal;font-weight:normal;font-size:57.5396px;line-height:1.25;font-family:sans-serif;fill:#000000;fill-opacity:1;stroke:none;stroke-width:1.43849"
       x="56.151817"
       y="31.064838"
       id="text8654"
       transform="scale(0.93149565,1.0735423)"><tspan
         sodipodi:role="line"
         id="tspan8652"
         x="56.151817"
         y="31.064838"
         style="stroke-width:1.43849">A</tspan></text></g></svg>
